# xmcd
#
# Track frame offsets:
# 150
# 28585
# 48642
# 75270
# 105515
# 130722
# 156200
# 180300
# 200570
# 220727
# 234430
#
# Disc length: 3457 seconds
#
#
# Revision: 0
# Processed by: cddbd v1.5.1PL0 Copyright (c) Steve Scherf et al.
# Submitted via: FreeRIP 2.30 
#
DISCID=830d7f0b
DTITLE=Baba Blues - Deep Down in the Mirror
DYEAR=2005
DGENRE=Blues
TTITLE0=Heavy Stone
TTITLE1=Blues is Gonna Be Your Friend
TTITLE2=Shyness is the Shadow of Love
TTITLE3=Juvenile Land
TTITLE4=When I'm in There
TTITLE5=Deep Down in the Mirror
TTITLE6=You Said You Wanted to Kill Me, Darling
TTITLE7=Looking for Somebody
TTITLE8=Walking in Blood
TTITLE9=Melody for the Mayfly
TTITLE10=Better to Die the Natural Way than to Starve Yourself to Death
EXTD=
EXTT0=
EXTT1=
EXTT2=
EXTT3=
EXTT4=
EXTT5=
EXTT6=
EXTT7=
EXTT8=
EXTT9=
EXTT10=
PLAYORDER=
